<?xml version="1.0" encoding="iso-8859-1"?>
<!-- Generator: Adobe Illustrator 19.0.0, SVG Export Plug-In . SVG Version: 6.00 Build 0)  -->
<svg version="1.1" id="Capa_1" xmlns="http://www.w3.org/2000/svg" xmlns:xlink="http://www.w3.org/1999/xlink" x="0px" y="0px"
	 viewBox="0 0 512 512" style="enable-background:new 0 0 512 512;" xml:space="preserve">
<g>
	<g>
		<path d="M382.424,277.029l-21.823-12.6c0.514-5.573,0.55-10.893,0-16.858l21.823-12.6c7.175-4.142,9.633-13.316,5.49-20.49
			l-30-51.962c-4.142-7.175-13.316-9.631-20.49-5.491l-22.133,12.778c-4.552-3.146-9.323-5.913-14.291-8.286V136
			c0-8.284-6.716-15-15-15h-60c-8.284,0-15,6.716-15,15v25.52c-4.968,2.374-9.739,5.14-14.291,8.286l-22.133-12.778
			c-7.175-4.142-16.348-1.684-20.49,5.491l-30,51.962c-4.143,7.174-1.685,16.348,5.49,20.49l21.823,12.6
			c-0.514,5.573-0.55,10.893,0,16.858l-21.823,12.6c-7.175,4.142-9.633,13.316-5.49,20.49l30,51.962
			c4.143,7.175,13.316,9.63,20.49,5.491l22.133-12.778c4.552,3.146,9.323,5.913,14.291,8.286V376c0,8.284,6.716,15,15,15h60
			c8.284,0,15-6.716,15-15v-25.52c4.968-2.373,9.739-5.14,14.291-8.286l22.133,12.778c7.173,4.141,16.348,1.683,20.49-5.491
			l30-51.962C392.057,290.345,389.599,281.171,382.424,277.029z M329.6,242.352c1.865,10.12,1.865,17.176,0,27.296
			c-1.151,6.244,1.753,12.536,7.251,15.71l17.583,10.151l-15,25.981l-17.816-10.286c-5.501-3.176-12.405-2.543-17.236,1.58
			c-6.998,5.971-14.873,10.537-23.405,13.57c-5.98,2.126-9.976,7.786-9.976,14.133V361h-30v-20.511
			c0-6.347-3.995-12.007-9.976-14.133c-8.532-3.034-16.407-7.6-23.405-13.57c-4.833-4.123-11.734-4.755-17.236-1.58l-17.816,10.286
			l-15-25.981l17.583-10.151c5.498-3.174,8.402-9.466,7.251-15.71c-1.865-10.12-1.865-17.176,0-27.296
			c1.151-6.244-1.753-12.536-7.251-15.71l-17.583-10.151l15-25.981l17.816,10.286c5.5,3.174,12.404,2.544,17.235-1.58
			c7-5.972,14.875-10.537,23.406-13.57c5.98-2.126,9.976-7.787,9.976-14.134V151h30v20.512c0,6.347,3.995,12.007,9.976,14.134
			c8.531,3.033,16.406,7.598,23.406,13.57c4.831,4.122,11.733,4.755,17.235,1.58l17.816-10.286l15,25.981l-17.583,10.151
			C331.353,229.816,328.448,236.108,329.6,242.352z"/>
	</g>
</g>
<g>
	<g>
		<path d="M256,211c-24.813,0-45,20.187-45,45s20.187,45,45,45s45-20.187,45-45S280.813,211,256,211z M256,271
			c-8.271,0-15-6.729-15-15s6.729-15,15-15s15,6.729,15,15S264.271,271,256,271z"/>
	</g>
</g>
<g>
	<g>
		<path d="M497,211c8.284,0,15-6.716,15-15s-6.716-15-15-15h-46v-30h46c8.284,0,15-6.716,15-15s-6.716-15-15-15h-46v-15
			c0-24.813-20.187-45-45-45h-15V15c0-8.284-6.716-15-15-15s-15,6.716-15,15v46h-30V15c0-8.284-6.716-15-15-15s-15,6.716-15,15v46
			h-30V15c0-8.284-6.716-15-15-15s-15,6.716-15,15v46h-30V15c0-8.284-6.716-15-15-15s-15,6.716-15,15v46h-30V15
			c0-8.284-6.716-15-15-15s-15,6.716-15,15v46h-15c-24.813,0-45,20.187-45,45v15H15c-8.284,0-15,6.716-15,15s6.716,15,15,15h46v30
			H15c-8.284,0-15,6.716-15,15s6.716,15,15,15h46v30H15c-8.284,0-15,6.716-15,15s6.716,15,15,15h46v30H15c-8.284,0-15,6.716-15,15
			s6.716,15,15,15h46v30H15c-8.284,0-15,6.716-15,15s6.716,15,15,15h46v15c0,24.813,20.187,45,45,45h15v46c0,8.284,6.716,15,15,15
			s15-6.716,15-15v-46h30v46c0,8.284,6.716,15,15,15s15-6.716,15-15v-46h30v46c0,8.284,6.716,15,15,15s15-6.716,15-15v-46h30v46
			c0,8.284,6.716,15,15,15s15-6.716,15-15v-46h30v46c0,8.284,6.716,15,15,15s15-6.716,15-15v-46h15c24.813,0,45-20.187,45-45v-15h46
			c8.284,0,15-6.716,15-15s-6.716-15-15-15h-46v-30h46c8.284,0,15-6.716,15-15s-6.716-15-15-15h-46v-30h46c8.284,0,15-6.716,15-15
			s-6.716-15-15-15h-46v-30H497z M421,406c0,8.271-6.729,15-15,15H106c-8.271,0-15-6.729-15-15V106c0-8.271,6.729-15,15-15h300
			c8.271,0,15,6.729,15,15V406z"/>
	</g>
</g>
<g>
</g>
<g>
</g>
<g>
</g>
<g>
</g>
<g>
</g>
<g>
</g>
<g>
</g>
<g>
</g>
<g>
</g>
<g>
</g>
<g>
</g>
<g>
</g>
<g>
</g>
<g>
</g>
<g>
</g>
</svg>
